<mxfile host="app.diagrams.net" modified="2023-09-27T14:14:04.755Z" agent="Mozilla/5.0 (Windows NT 10.0; Win64; x64) AppleWebKit/537.36 (KHTML, like Gecko) Chrome/117.0.0.0 Safari/537.36" etag="VAJIbIO2tFinot_PiVQX" version="21.8.2" type="device">
  <diagram id="C5RBs43oDa-KdzZeNtuy" name="Page-1">
    <mxGraphModel dx="1434" dy="1959" grid="1" gridSize="10" guides="1" tooltips="1" connect="1" arrows="1" fold="1" page="1" pageScale="1" pageWidth="827" pageHeight="1169" math="0" shadow="0">
      <root>
        <mxCell id="WIyWlLk6GJQsqaUBKTNV-0" />
        <mxCell id="WIyWlLk6GJQsqaUBKTNV-1" parent="WIyWlLk6GJQsqaUBKTNV-0" />
        <mxCell id="zkfFHV4jXpPFQw0GAbJ--0" value="Holst" style="swimlane;fontStyle=2;align=center;verticalAlign=top;childLayout=stackLayout;horizontal=1;startSize=26;horizontalStack=0;resizeParent=1;resizeLast=0;collapsible=1;marginBottom=0;rounded=0;shadow=0;strokeWidth=1;" parent="WIyWlLk6GJQsqaUBKTNV-1" vertex="1">
          <mxGeometry x="70" y="169" width="160" height="340" as="geometry">
            <mxRectangle x="230" y="140" width="160" height="26" as="alternateBounds" />
          </mxGeometry>
        </mxCell>
        <mxCell id="zkfFHV4jXpPFQw0GAbJ--1" value="res_x:int" style="text;align=left;verticalAlign=top;spacingLeft=4;spacingRight=4;overflow=hidden;rotatable=0;points=[[0,0.5],[1,0.5]];portConstraint=eastwest;" parent="zkfFHV4jXpPFQw0GAbJ--0" vertex="1">
          <mxGeometry y="26" width="160" height="26" as="geometry" />
        </mxCell>
        <mxCell id="zkfFHV4jXpPFQw0GAbJ--2" value="res_y:int" style="text;align=left;verticalAlign=top;spacingLeft=4;spacingRight=4;overflow=hidden;rotatable=0;points=[[0,0.5],[1,0.5]];portConstraint=eastwest;rounded=0;shadow=0;html=0;" parent="zkfFHV4jXpPFQw0GAbJ--0" vertex="1">
          <mxGeometry y="52" width="160" height="26" as="geometry" />
        </mxCell>
        <mxCell id="zkfFHV4jXpPFQw0GAbJ--3" value="objescts_tree:Figure[1...*]" style="text;align=left;verticalAlign=top;spacingLeft=4;spacingRight=4;overflow=hidden;rotatable=0;points=[[0,0.5],[1,0.5]];portConstraint=eastwest;rounded=0;shadow=0;html=0;" parent="zkfFHV4jXpPFQw0GAbJ--0" vertex="1">
          <mxGeometry y="78" width="160" height="26" as="geometry" />
        </mxCell>
        <mxCell id="0YZiHKQ1gjysHXULgs4c-47" value="class Figure()" style="text;align=left;verticalAlign=top;spacingLeft=4;spacingRight=4;overflow=hidden;rotatable=0;points=[[0,0.5],[1,0.5]];portConstraint=eastwest;rounded=0;shadow=0;html=0;" parent="zkfFHV4jXpPFQw0GAbJ--0" vertex="1">
          <mxGeometry y="104" width="160" height="26" as="geometry" />
        </mxCell>
        <mxCell id="zkfFHV4jXpPFQw0GAbJ--4" value="" style="line;html=1;strokeWidth=1;align=left;verticalAlign=middle;spacingTop=-1;spacingLeft=3;spacingRight=3;rotatable=0;labelPosition=right;points=[];portConstraint=eastwest;" parent="zkfFHV4jXpPFQw0GAbJ--0" vertex="1">
          <mxGeometry y="130" width="160" height="8" as="geometry" />
        </mxCell>
        <mxCell id="0YZiHKQ1gjysHXULgs4c-12" value="add_object()" style="text;align=left;verticalAlign=top;spacingLeft=4;spacingRight=4;overflow=hidden;rotatable=0;points=[[0,0.5],[1,0.5]];portConstraint=eastwest;" parent="zkfFHV4jXpPFQw0GAbJ--0" vertex="1">
          <mxGeometry y="138" width="160" height="28" as="geometry" />
        </mxCell>
        <mxCell id="zkfFHV4jXpPFQw0GAbJ--5" value="set_res()&#xa;" style="text;align=left;verticalAlign=top;spacingLeft=4;spacingRight=4;overflow=hidden;rotatable=0;points=[[0,0.5],[1,0.5]];portConstraint=eastwest;" parent="zkfFHV4jXpPFQw0GAbJ--0" vertex="1">
          <mxGeometry y="166" width="160" height="30" as="geometry" />
        </mxCell>
        <mxCell id="0YZiHKQ1gjysHXULgs4c-100" value="get_object()&#xa;" style="text;align=left;verticalAlign=top;spacingLeft=4;spacingRight=4;overflow=hidden;rotatable=0;points=[[0,0.5],[1,0.5]];portConstraint=eastwest;" parent="zkfFHV4jXpPFQw0GAbJ--0" vertex="1">
          <mxGeometry y="196" width="160" height="30" as="geometry" />
        </mxCell>
        <mxCell id="PDMnQv3lnzzMFyuI-r6o-5" value="render_object()&#xa;" style="text;align=left;verticalAlign=top;spacingLeft=4;spacingRight=4;overflow=hidden;rotatable=0;points=[[0,0.5],[1,0.5]];portConstraint=eastwest;" parent="zkfFHV4jXpPFQw0GAbJ--0" vertex="1">
          <mxGeometry y="226" width="160" height="30" as="geometry" />
        </mxCell>
        <mxCell id="PDMnQv3lnzzMFyuI-r6o-37" value="save_file()&#xa;" style="text;align=left;verticalAlign=top;spacingLeft=4;spacingRight=4;overflow=hidden;rotatable=0;points=[[0,0.5],[1,0.5]];portConstraint=eastwest;" parent="zkfFHV4jXpPFQw0GAbJ--0" vertex="1">
          <mxGeometry y="256" width="160" height="30" as="geometry" />
        </mxCell>
        <mxCell id="PDMnQv3lnzzMFyuI-r6o-83" value="delete_object()" style="text;align=left;verticalAlign=top;spacingLeft=4;spacingRight=4;overflow=hidden;rotatable=0;points=[[0,0.5],[1,0.5]];portConstraint=eastwest;" parent="zkfFHV4jXpPFQw0GAbJ--0" vertex="1">
          <mxGeometry y="286" width="160" height="28" as="geometry" />
        </mxCell>
        <mxCell id="PDMnQv3lnzzMFyuI-r6o-89" value="render_Holst()" style="text;align=left;verticalAlign=top;spacingLeft=4;spacingRight=4;overflow=hidden;rotatable=0;points=[[0,0.5],[1,0.5]];portConstraint=eastwest;" parent="zkfFHV4jXpPFQw0GAbJ--0" vertex="1">
          <mxGeometry y="314" width="160" height="26" as="geometry" />
        </mxCell>
        <mxCell id="0YZiHKQ1gjysHXULgs4c-22" value="Figure" style="swimlane;fontStyle=2;align=center;verticalAlign=top;childLayout=stackLayout;horizontal=1;startSize=26;horizontalStack=0;resizeParent=1;resizeLast=0;collapsible=1;marginBottom=0;rounded=0;shadow=0;strokeWidth=1;" parent="WIyWlLk6GJQsqaUBKTNV-1" vertex="1">
          <mxGeometry x="470" y="330" width="160" height="366" as="geometry">
            <mxRectangle x="230" y="140" width="160" height="26" as="alternateBounds" />
          </mxGeometry>
        </mxCell>
        <mxCell id="0YZiHKQ1gjysHXULgs4c-23" value="x:int" style="text;align=left;verticalAlign=top;spacingLeft=4;spacingRight=4;overflow=hidden;rotatable=0;points=[[0,0.5],[1,0.5]];portConstraint=eastwest;" parent="0YZiHKQ1gjysHXULgs4c-22" vertex="1">
          <mxGeometry y="26" width="160" height="26" as="geometry" />
        </mxCell>
        <mxCell id="0YZiHKQ1gjysHXULgs4c-24" value="y:int" style="text;align=left;verticalAlign=top;spacingLeft=4;spacingRight=4;overflow=hidden;rotatable=0;points=[[0,0.5],[1,0.5]];portConstraint=eastwest;rounded=0;shadow=0;html=0;" parent="0YZiHKQ1gjysHXULgs4c-22" vertex="1">
          <mxGeometry y="52" width="160" height="26" as="geometry" />
        </mxCell>
        <mxCell id="0YZiHKQ1gjysHXULgs4c-119" value="color:string" style="text;align=left;verticalAlign=top;spacingLeft=4;spacingRight=4;overflow=hidden;rotatable=0;points=[[0,0.5],[1,0.5]];portConstraint=eastwest;rounded=0;shadow=0;html=0;" parent="0YZiHKQ1gjysHXULgs4c-22" vertex="1">
          <mxGeometry y="78" width="160" height="26" as="geometry" />
        </mxCell>
        <mxCell id="0YZiHKQ1gjysHXULgs4c-26" value="" style="line;html=1;strokeWidth=1;align=left;verticalAlign=middle;spacingTop=-1;spacingLeft=3;spacingRight=3;rotatable=0;labelPosition=right;points=[];portConstraint=eastwest;" parent="0YZiHKQ1gjysHXULgs4c-22" vertex="1">
          <mxGeometry y="104" width="160" height="2" as="geometry" />
        </mxCell>
        <mxCell id="0YZiHKQ1gjysHXULgs4c-27" value="get_x()&#xa;" style="text;align=left;verticalAlign=top;spacingLeft=4;spacingRight=4;overflow=hidden;rotatable=0;points=[[0,0.5],[1,0.5]];portConstraint=eastwest;" parent="0YZiHKQ1gjysHXULgs4c-22" vertex="1">
          <mxGeometry y="106" width="160" height="22" as="geometry" />
        </mxCell>
        <mxCell id="0YZiHKQ1gjysHXULgs4c-28" value="get_y()&#xa;" style="text;align=left;verticalAlign=top;spacingLeft=4;spacingRight=4;overflow=hidden;rotatable=0;points=[[0,0.5],[1,0.5]];portConstraint=eastwest;" parent="0YZiHKQ1gjysHXULgs4c-22" vertex="1">
          <mxGeometry y="128" width="160" height="28" as="geometry" />
        </mxCell>
        <mxCell id="0YZiHKQ1gjysHXULgs4c-101" value="set_position()&#xa;" style="text;align=left;verticalAlign=top;spacingLeft=4;spacingRight=4;overflow=hidden;rotatable=0;points=[[0,0.5],[1,0.5]];portConstraint=eastwest;" parent="0YZiHKQ1gjysHXULgs4c-22" vertex="1">
          <mxGeometry y="156" width="160" height="28" as="geometry" />
        </mxCell>
        <mxCell id="n2m1qEo15SlTPp7_ACov-0" value="set_thikness()" style="text;align=left;verticalAlign=top;spacingLeft=4;spacingRight=4;overflow=hidden;rotatable=0;points=[[0,0.5],[1,0.5]];portConstraint=eastwest;rounded=0;shadow=0;html=0;" parent="0YZiHKQ1gjysHXULgs4c-22" vertex="1">
          <mxGeometry y="184" width="160" height="26" as="geometry" />
        </mxCell>
        <mxCell id="0YZiHKQ1gjysHXULgs4c-113" value="set_line_color()" style="text;align=left;verticalAlign=top;spacingLeft=4;spacingRight=4;overflow=hidden;rotatable=0;points=[[0,0.5],[1,0.5]];portConstraint=eastwest;rounded=0;shadow=0;html=0;" parent="0YZiHKQ1gjysHXULgs4c-22" vertex="1">
          <mxGeometry y="210" width="160" height="26" as="geometry" />
        </mxCell>
        <mxCell id="PDMnQv3lnzzMFyuI-r6o-51" value="set_fill_color()" style="text;align=left;verticalAlign=top;spacingLeft=4;spacingRight=4;overflow=hidden;rotatable=0;points=[[0,0.5],[1,0.5]];portConstraint=eastwest;rounded=0;shadow=0;html=0;" parent="0YZiHKQ1gjysHXULgs4c-22" vertex="1">
          <mxGeometry y="236" width="160" height="26" as="geometry" />
        </mxCell>
        <mxCell id="PDMnQv3lnzzMFyuI-r6o-54" value="set_Size()" style="text;align=left;verticalAlign=top;spacingLeft=4;spacingRight=4;overflow=hidden;rotatable=0;points=[[0,0.5],[1,0.5]];portConstraint=eastwest;rounded=0;shadow=0;html=0;" parent="0YZiHKQ1gjysHXULgs4c-22" vertex="1">
          <mxGeometry y="262" width="160" height="26" as="geometry" />
        </mxCell>
        <mxCell id="PDMnQv3lnzzMFyuI-r6o-50" value="fill()" style="text;align=left;verticalAlign=top;spacingLeft=4;spacingRight=4;overflow=hidden;rotatable=0;points=[[0,0.5],[1,0.5]];portConstraint=eastwest;rounded=0;shadow=0;html=0;" parent="0YZiHKQ1gjysHXULgs4c-22" vertex="1">
          <mxGeometry y="288" width="160" height="26" as="geometry" />
        </mxCell>
        <mxCell id="0YZiHKQ1gjysHXULgs4c-30" value="Main_Menu" style="swimlane;fontStyle=2;align=center;verticalAlign=top;childLayout=stackLayout;horizontal=1;startSize=26;horizontalStack=0;resizeParent=1;resizeLast=0;collapsible=1;marginBottom=0;rounded=0;shadow=0;strokeWidth=1;" parent="WIyWlLk6GJQsqaUBKTNV-1" vertex="1">
          <mxGeometry x="254" y="-70" width="160" height="146" as="geometry">
            <mxRectangle x="230" y="140" width="160" height="26" as="alternateBounds" />
          </mxGeometry>
        </mxCell>
        <mxCell id="PDMnQv3lnzzMFyuI-r6o-52" value="figure_op:string[1...*]" style="text;align=left;verticalAlign=top;spacingLeft=4;spacingRight=4;overflow=hidden;rotatable=0;points=[[0,0.5],[1,0.5]];portConstraint=eastwest;" parent="0YZiHKQ1gjysHXULgs4c-30" vertex="1">
          <mxGeometry y="26" width="160" height="26" as="geometry" />
        </mxCell>
        <mxCell id="0YZiHKQ1gjysHXULgs4c-31" value="-" style="text;align=left;verticalAlign=top;spacingLeft=4;spacingRight=4;overflow=hidden;rotatable=0;points=[[0,0.5],[1,0.5]];portConstraint=eastwest;" parent="0YZiHKQ1gjysHXULgs4c-30" vertex="1">
          <mxGeometry y="52" width="160" height="26" as="geometry" />
        </mxCell>
        <mxCell id="0YZiHKQ1gjysHXULgs4c-33" value="" style="line;html=1;strokeWidth=1;align=left;verticalAlign=middle;spacingTop=-1;spacingLeft=3;spacingRight=3;rotatable=0;labelPosition=right;points=[];portConstraint=eastwest;" parent="0YZiHKQ1gjysHXULgs4c-30" vertex="1">
          <mxGeometry y="78" width="160" height="8" as="geometry" />
        </mxCell>
        <mxCell id="PDMnQv3lnzzMFyuI-r6o-23" value="place_figure()&#xa;" style="text;align=left;verticalAlign=top;spacingLeft=4;spacingRight=4;overflow=hidden;rotatable=0;points=[[0,0.5],[1,0.5]];portConstraint=eastwest;" parent="0YZiHKQ1gjysHXULgs4c-30" vertex="1">
          <mxGeometry y="86" width="160" height="30" as="geometry" />
        </mxCell>
        <mxCell id="PDMnQv3lnzzMFyuI-r6o-86" value="save_file()&#xa;" style="text;align=left;verticalAlign=top;spacingLeft=4;spacingRight=4;overflow=hidden;rotatable=0;points=[[0,0.5],[1,0.5]];portConstraint=eastwest;" parent="0YZiHKQ1gjysHXULgs4c-30" vertex="1">
          <mxGeometry y="116" width="160" height="30" as="geometry" />
        </mxCell>
        <mxCell id="0YZiHKQ1gjysHXULgs4c-36" value="Graph_Redactor" style="swimlane;fontStyle=2;align=center;verticalAlign=top;childLayout=stackLayout;horizontal=1;startSize=26;horizontalStack=0;resizeParent=1;resizeLast=0;collapsible=1;marginBottom=0;rounded=0;shadow=0;strokeWidth=1;" parent="WIyWlLk6GJQsqaUBKTNV-1" vertex="1">
          <mxGeometry x="820" y="-690" width="160" height="240" as="geometry">
            <mxRectangle x="230" y="140" width="160" height="26" as="alternateBounds" />
          </mxGeometry>
        </mxCell>
        <mxCell id="0YZiHKQ1gjysHXULgs4c-37" value="class Menu()" style="text;align=left;verticalAlign=top;spacingLeft=4;spacingRight=4;overflow=hidden;rotatable=0;points=[[0,0.5],[1,0.5]];portConstraint=eastwest;" parent="0YZiHKQ1gjysHXULgs4c-36" vertex="1">
          <mxGeometry y="26" width="160" height="26" as="geometry" />
        </mxCell>
        <mxCell id="PDMnQv3lnzzMFyuI-r6o-67" value="figure_op:Menu[1...*]" style="text;align=left;verticalAlign=top;spacingLeft=4;spacingRight=4;overflow=hidden;rotatable=0;points=[[0,0.5],[1,0.5]];portConstraint=eastwest;" parent="0YZiHKQ1gjysHXULgs4c-36" vertex="1">
          <mxGeometry y="52" width="160" height="26" as="geometry" />
        </mxCell>
        <mxCell id="0YZiHKQ1gjysHXULgs4c-38" value="" style="line;html=1;strokeWidth=1;align=left;verticalAlign=middle;spacingTop=-1;spacingLeft=3;spacingRight=3;rotatable=0;labelPosition=right;points=[];portConstraint=eastwest;" parent="0YZiHKQ1gjysHXULgs4c-36" vertex="1">
          <mxGeometry y="78" width="160" height="8" as="geometry" />
        </mxCell>
        <mxCell id="0YZiHKQ1gjysHXULgs4c-40" value="" style="endArrow=diamondThin;endFill=1;endSize=24;html=1;rounded=0;exitX=0.151;exitY=-0.001;exitDx=0;exitDy=0;entryX=0.5;entryY=1;entryDx=0;entryDy=0;exitPerimeter=0;" parent="WIyWlLk6GJQsqaUBKTNV-1" source="zkfFHV4jXpPFQw0GAbJ--0" target="PDMnQv3lnzzMFyuI-r6o-63" edge="1">
          <mxGeometry width="160" relative="1" as="geometry">
            <mxPoint x="230" y="500" as="sourcePoint" />
            <mxPoint x="280" y="340" as="targetPoint" />
          </mxGeometry>
        </mxCell>
        <mxCell id="0YZiHKQ1gjysHXULgs4c-42" value="1" style="edgeLabel;html=1;align=center;verticalAlign=middle;resizable=0;points=[];" parent="0YZiHKQ1gjysHXULgs4c-40" vertex="1" connectable="0">
          <mxGeometry x="-0.4692" y="1" relative="1" as="geometry">
            <mxPoint as="offset" />
          </mxGeometry>
        </mxCell>
        <mxCell id="0YZiHKQ1gjysHXULgs4c-44" value="" style="endArrow=diamondThin;endFill=1;endSize=24;html=1;rounded=0;entryX=1;entryY=0.5;entryDx=0;entryDy=0;exitX=0;exitY=0.5;exitDx=0;exitDy=0;" parent="WIyWlLk6GJQsqaUBKTNV-1" source="0YZiHKQ1gjysHXULgs4c-101" target="0YZiHKQ1gjysHXULgs4c-47" edge="1">
          <mxGeometry width="160" relative="1" as="geometry">
            <mxPoint x="560" y="520" as="sourcePoint" />
            <mxPoint x="609.3600000000001" y="422.164" as="targetPoint" />
          </mxGeometry>
        </mxCell>
        <mxCell id="0YZiHKQ1gjysHXULgs4c-49" value="Dot" style="swimlane;fontStyle=2;align=center;verticalAlign=top;childLayout=stackLayout;horizontal=1;startSize=26;horizontalStack=0;resizeParent=1;resizeLast=0;collapsible=1;marginBottom=0;rounded=0;shadow=0;strokeWidth=1;" parent="WIyWlLk6GJQsqaUBKTNV-1" vertex="1">
          <mxGeometry x="100" y="630" width="160" height="198" as="geometry">
            <mxRectangle x="230" y="140" width="160" height="26" as="alternateBounds" />
          </mxGeometry>
        </mxCell>
        <mxCell id="0YZiHKQ1gjysHXULgs4c-52" value="" style="line;html=1;strokeWidth=1;align=left;verticalAlign=middle;spacingTop=-1;spacingLeft=3;spacingRight=3;rotatable=0;labelPosition=right;points=[];portConstraint=eastwest;" parent="0YZiHKQ1gjysHXULgs4c-49" vertex="1">
          <mxGeometry y="26" width="160" height="8" as="geometry" />
        </mxCell>
        <mxCell id="0YZiHKQ1gjysHXULgs4c-56" value="Line" style="swimlane;fontStyle=2;align=center;verticalAlign=top;childLayout=stackLayout;horizontal=1;startSize=26;horizontalStack=0;resizeParent=1;resizeLast=0;collapsible=1;marginBottom=0;rounded=0;shadow=0;strokeWidth=1;" parent="WIyWlLk6GJQsqaUBKTNV-1" vertex="1">
          <mxGeometry x="450" y="800" width="160" height="200" as="geometry">
            <mxRectangle x="230" y="140" width="160" height="26" as="alternateBounds" />
          </mxGeometry>
        </mxCell>
        <mxCell id="0YZiHKQ1gjysHXULgs4c-95" value="Dot1:Dot&#xa;" style="text;align=left;verticalAlign=top;spacingLeft=4;spacingRight=4;overflow=hidden;rotatable=0;points=[[0,0.5],[1,0.5]];portConstraint=eastwest;rounded=0;shadow=0;html=0;" parent="0YZiHKQ1gjysHXULgs4c-56" vertex="1">
          <mxGeometry y="26" width="160" height="26" as="geometry" />
        </mxCell>
        <mxCell id="0YZiHKQ1gjysHXULgs4c-96" value="Dot2:Dot" style="text;align=left;verticalAlign=top;spacingLeft=4;spacingRight=4;overflow=hidden;rotatable=0;points=[[0,0.5],[1,0.5]];portConstraint=eastwest;rounded=0;shadow=0;html=0;" parent="0YZiHKQ1gjysHXULgs4c-56" vertex="1">
          <mxGeometry y="52" width="160" height="26" as="geometry" />
        </mxCell>
        <mxCell id="0YZiHKQ1gjysHXULgs4c-59" value="" style="line;html=1;strokeWidth=1;align=left;verticalAlign=middle;spacingTop=-1;spacingLeft=3;spacingRight=3;rotatable=0;labelPosition=right;points=[];portConstraint=eastwest;" parent="0YZiHKQ1gjysHXULgs4c-56" vertex="1">
          <mxGeometry y="78" width="160" height="8" as="geometry" />
        </mxCell>
        <mxCell id="0YZiHKQ1gjysHXULgs4c-111" value="set_Dot_position()" style="text;align=left;verticalAlign=top;spacingLeft=4;spacingRight=4;overflow=hidden;rotatable=0;points=[[0,0.5],[1,0.5]];portConstraint=eastwest;rounded=0;shadow=0;html=0;" parent="0YZiHKQ1gjysHXULgs4c-56" vertex="1">
          <mxGeometry y="86" width="160" height="26" as="geometry" />
        </mxCell>
        <mxCell id="0YZiHKQ1gjysHXULgs4c-68" value="Polygon" style="swimlane;fontStyle=2;align=center;verticalAlign=top;childLayout=stackLayout;horizontal=1;startSize=26;horizontalStack=0;resizeParent=1;resizeLast=0;collapsible=1;marginBottom=0;rounded=0;shadow=0;strokeWidth=1;" parent="WIyWlLk6GJQsqaUBKTNV-1" vertex="1">
          <mxGeometry x="860" y="670" width="160" height="200" as="geometry">
            <mxRectangle x="230" y="140" width="160" height="26" as="alternateBounds" />
          </mxGeometry>
        </mxCell>
        <mxCell id="0YZiHKQ1gjysHXULgs4c-132" value="Dot_list:Dot[1...*]" style="text;align=left;verticalAlign=top;spacingLeft=4;spacingRight=4;overflow=hidden;rotatable=0;points=[[0,0.5],[1,0.5]];portConstraint=eastwest;rounded=0;shadow=0;html=0;" parent="0YZiHKQ1gjysHXULgs4c-68" vertex="1">
          <mxGeometry y="26" width="160" height="26" as="geometry" />
        </mxCell>
        <mxCell id="0YZiHKQ1gjysHXULgs4c-71" value="" style="line;html=1;strokeWidth=1;align=left;verticalAlign=middle;spacingTop=-1;spacingLeft=3;spacingRight=3;rotatable=0;labelPosition=right;points=[];portConstraint=eastwest;" parent="0YZiHKQ1gjysHXULgs4c-68" vertex="1">
          <mxGeometry y="52" width="160" height="8" as="geometry" />
        </mxCell>
        <mxCell id="0YZiHKQ1gjysHXULgs4c-133" value="set_Dot_position()" style="text;align=left;verticalAlign=top;spacingLeft=4;spacingRight=4;overflow=hidden;rotatable=0;points=[[0,0.5],[1,0.5]];portConstraint=eastwest;rounded=0;shadow=0;html=0;" parent="0YZiHKQ1gjysHXULgs4c-68" vertex="1">
          <mxGeometry y="60" width="160" height="26" as="geometry" />
        </mxCell>
        <mxCell id="0YZiHKQ1gjysHXULgs4c-90" value="Extends" style="endArrow=block;endSize=16;endFill=0;html=1;rounded=0;exitX=0.5;exitY=0;exitDx=0;exitDy=0;" parent="WIyWlLk6GJQsqaUBKTNV-1" source="0YZiHKQ1gjysHXULgs4c-56" edge="1">
          <mxGeometry x="0.1765" width="160" relative="1" as="geometry">
            <mxPoint x="630" y="640" as="sourcePoint" />
            <mxPoint x="560" y="690" as="targetPoint" />
            <mxPoint as="offset" />
          </mxGeometry>
        </mxCell>
        <mxCell id="0YZiHKQ1gjysHXULgs4c-39" value="" style="endArrow=diamondThin;endFill=1;endSize=24;html=1;rounded=0;exitX=0.5;exitY=0;exitDx=0;exitDy=0;entryX=0;entryY=0.5;entryDx=0;entryDy=0;" parent="WIyWlLk6GJQsqaUBKTNV-1" source="PDMnQv3lnzzMFyuI-r6o-56" target="0YZiHKQ1gjysHXULgs4c-36" edge="1">
          <mxGeometry width="160" relative="1" as="geometry">
            <mxPoint x="320.31999999999994" y="198.15200000000004" as="sourcePoint" />
            <mxPoint x="390" y="500" as="targetPoint" />
          </mxGeometry>
        </mxCell>
        <mxCell id="PDMnQv3lnzzMFyuI-r6o-0" value="Extends" style="endArrow=block;endSize=16;endFill=0;html=1;rounded=0;exitX=0.5;exitY=0;exitDx=0;exitDy=0;entryX=0;entryY=0.5;entryDx=0;entryDy=0;" parent="WIyWlLk6GJQsqaUBKTNV-1" source="0YZiHKQ1gjysHXULgs4c-49" target="PDMnQv3lnzzMFyuI-r6o-50" edge="1">
          <mxGeometry width="160" relative="1" as="geometry">
            <mxPoint x="610" y="660" as="sourcePoint" />
            <mxPoint x="560" y="595" as="targetPoint" />
          </mxGeometry>
        </mxCell>
        <mxCell id="PDMnQv3lnzzMFyuI-r6o-4" value="Extends" style="endArrow=block;endSize=16;endFill=0;html=1;rounded=0;exitX=-0.003;exitY=-0.173;exitDx=0;exitDy=0;entryX=1;entryY=0.5;entryDx=0;entryDy=0;exitPerimeter=0;" parent="WIyWlLk6GJQsqaUBKTNV-1" source="0YZiHKQ1gjysHXULgs4c-133" target="0YZiHKQ1gjysHXULgs4c-113" edge="1">
          <mxGeometry width="160" relative="1" as="geometry">
            <mxPoint x="610" y="660" as="sourcePoint" />
            <mxPoint x="770" y="660" as="targetPoint" />
          </mxGeometry>
        </mxCell>
        <mxCell id="PDMnQv3lnzzMFyuI-r6o-6" value="Circle" style="swimlane;fontStyle=2;align=center;verticalAlign=top;childLayout=stackLayout;horizontal=1;startSize=26;horizontalStack=0;resizeParent=1;resizeLast=0;collapsible=1;marginBottom=0;rounded=0;shadow=0;strokeWidth=1;" parent="WIyWlLk6GJQsqaUBKTNV-1" vertex="1">
          <mxGeometry x="860" y="230" width="160" height="198" as="geometry">
            <mxRectangle x="230" y="140" width="160" height="26" as="alternateBounds" />
          </mxGeometry>
        </mxCell>
        <mxCell id="PDMnQv3lnzzMFyuI-r6o-7" value="Radius:float" style="text;align=left;verticalAlign=top;spacingLeft=4;spacingRight=4;overflow=hidden;rotatable=0;points=[[0,0.5],[1,0.5]];portConstraint=eastwest;" parent="PDMnQv3lnzzMFyuI-r6o-6" vertex="1">
          <mxGeometry y="26" width="160" height="26" as="geometry" />
        </mxCell>
        <mxCell id="PDMnQv3lnzzMFyuI-r6o-9" value="" style="line;html=1;strokeWidth=1;align=left;verticalAlign=middle;spacingTop=-1;spacingLeft=3;spacingRight=3;rotatable=0;labelPosition=right;points=[];portConstraint=eastwest;" parent="PDMnQv3lnzzMFyuI-r6o-6" vertex="1">
          <mxGeometry y="52" width="160" height="8" as="geometry" />
        </mxCell>
        <mxCell id="PDMnQv3lnzzMFyuI-r6o-10" value="change_radius()" style="text;align=left;verticalAlign=top;spacingLeft=4;spacingRight=4;overflow=hidden;rotatable=0;points=[[0,0.5],[1,0.5]];portConstraint=eastwest;" parent="PDMnQv3lnzzMFyuI-r6o-6" vertex="1">
          <mxGeometry y="60" width="160" height="22" as="geometry" />
        </mxCell>
        <mxCell id="PDMnQv3lnzzMFyuI-r6o-11" value="Extends" style="endArrow=block;endSize=16;endFill=0;html=1;rounded=0;exitX=0;exitY=0.5;exitDx=0;exitDy=0;entryX=1;entryY=0.5;entryDx=0;entryDy=0;" parent="WIyWlLk6GJQsqaUBKTNV-1" source="PDMnQv3lnzzMFyuI-r6o-6" target="0YZiHKQ1gjysHXULgs4c-101" edge="1">
          <mxGeometry width="160" relative="1" as="geometry">
            <mxPoint x="610" y="540" as="sourcePoint" />
            <mxPoint x="770" y="540" as="targetPoint" />
          </mxGeometry>
        </mxCell>
        <mxCell id="PDMnQv3lnzzMFyuI-r6o-21" value="Use" style="endArrow=open;endSize=12;dashed=1;html=1;rounded=0;exitX=0.5;exitY=1;exitDx=0;exitDy=0;entryX=0.5;entryY=0;entryDx=0;entryDy=0;" parent="WIyWlLk6GJQsqaUBKTNV-1" source="0YZiHKQ1gjysHXULgs4c-30" target="zkfFHV4jXpPFQw0GAbJ--0" edge="1">
          <mxGeometry width="160" relative="1" as="geometry">
            <mxPoint x="670" y="520" as="sourcePoint" />
            <mxPoint x="830" y="520" as="targetPoint" />
          </mxGeometry>
        </mxCell>
        <mxCell id="PDMnQv3lnzzMFyuI-r6o-29" value="Options_Menu" style="swimlane;fontStyle=2;align=center;verticalAlign=top;childLayout=stackLayout;horizontal=1;startSize=26;horizontalStack=0;resizeParent=1;resizeLast=0;collapsible=1;marginBottom=0;rounded=0;shadow=0;strokeWidth=1;" parent="WIyWlLk6GJQsqaUBKTNV-1" vertex="1">
          <mxGeometry x="560" y="-50" width="160" height="146" as="geometry">
            <mxRectangle x="230" y="140" width="160" height="26" as="alternateBounds" />
          </mxGeometry>
        </mxCell>
        <mxCell id="PDMnQv3lnzzMFyuI-r6o-53" value="graphlib_op:string[1...*]" style="text;align=left;verticalAlign=top;spacingLeft=4;spacingRight=4;overflow=hidden;rotatable=0;points=[[0,0.5],[1,0.5]];portConstraint=eastwest;" parent="PDMnQv3lnzzMFyuI-r6o-29" vertex="1">
          <mxGeometry y="26" width="160" height="26" as="geometry" />
        </mxCell>
        <mxCell id="PDMnQv3lnzzMFyuI-r6o-55" value="format_op:string[1...*]" style="text;align=left;verticalAlign=top;spacingLeft=4;spacingRight=4;overflow=hidden;rotatable=0;points=[[0,0.5],[1,0.5]];portConstraint=eastwest;" parent="PDMnQv3lnzzMFyuI-r6o-29" vertex="1">
          <mxGeometry y="52" width="160" height="26" as="geometry" />
        </mxCell>
        <mxCell id="PDMnQv3lnzzMFyuI-r6o-32" value="" style="line;html=1;strokeWidth=1;align=left;verticalAlign=middle;spacingTop=-1;spacingLeft=3;spacingRight=3;rotatable=0;labelPosition=right;points=[];portConstraint=eastwest;" parent="PDMnQv3lnzzMFyuI-r6o-29" vertex="1">
          <mxGeometry y="78" width="160" height="8" as="geometry" />
        </mxCell>
        <mxCell id="PDMnQv3lnzzMFyuI-r6o-38" value="change_resolution()" style="text;align=left;verticalAlign=top;spacingLeft=4;spacingRight=4;overflow=hidden;rotatable=0;points=[[0,0.5],[1,0.5]];portConstraint=eastwest;" parent="PDMnQv3lnzzMFyuI-r6o-29" vertex="1">
          <mxGeometry y="86" width="160" height="30" as="geometry" />
        </mxCell>
        <mxCell id="PDMnQv3lnzzMFyuI-r6o-39" value="change_graphlib()" style="text;align=left;verticalAlign=top;spacingLeft=4;spacingRight=4;overflow=hidden;rotatable=0;points=[[0,0.5],[1,0.5]];portConstraint=eastwest;" parent="PDMnQv3lnzzMFyuI-r6o-29" vertex="1">
          <mxGeometry y="116" width="160" height="30" as="geometry" />
        </mxCell>
        <mxCell id="PDMnQv3lnzzMFyuI-r6o-40" value="Use" style="endArrow=open;endSize=12;dashed=1;html=1;rounded=0;exitX=0;exitY=0.5;exitDx=0;exitDy=0;entryX=0.75;entryY=0;entryDx=0;entryDy=0;" parent="WIyWlLk6GJQsqaUBKTNV-1" source="PDMnQv3lnzzMFyuI-r6o-39" target="zkfFHV4jXpPFQw0GAbJ--0" edge="1">
          <mxGeometry width="160" relative="1" as="geometry">
            <mxPoint x="410" y="276" as="sourcePoint" />
            <mxPoint x="410" y="370" as="targetPoint" />
          </mxGeometry>
        </mxCell>
        <mxCell id="PDMnQv3lnzzMFyuI-r6o-56" value="Menu" style="swimlane;fontStyle=2;align=center;verticalAlign=top;childLayout=stackLayout;horizontal=1;startSize=26;horizontalStack=0;resizeParent=1;resizeLast=0;collapsible=1;marginBottom=0;rounded=0;shadow=0;strokeWidth=1;" parent="WIyWlLk6GJQsqaUBKTNV-1" vertex="1">
          <mxGeometry x="520" y="-310" width="160" height="142" as="geometry">
            <mxRectangle x="230" y="140" width="160" height="26" as="alternateBounds" />
          </mxGeometry>
        </mxCell>
        <mxCell id="PDMnQv3lnzzMFyuI-r6o-58" value="-" style="text;align=left;verticalAlign=top;spacingLeft=4;spacingRight=4;overflow=hidden;rotatable=0;points=[[0,0.5],[1,0.5]];portConstraint=eastwest;" parent="PDMnQv3lnzzMFyuI-r6o-56" vertex="1">
          <mxGeometry y="26" width="160" height="26" as="geometry" />
        </mxCell>
        <mxCell id="PDMnQv3lnzzMFyuI-r6o-59" value="" style="line;html=1;strokeWidth=1;align=left;verticalAlign=middle;spacingTop=-1;spacingLeft=3;spacingRight=3;rotatable=0;labelPosition=right;points=[];portConstraint=eastwest;" parent="PDMnQv3lnzzMFyuI-r6o-56" vertex="1">
          <mxGeometry y="52" width="160" height="8" as="geometry" />
        </mxCell>
        <mxCell id="PDMnQv3lnzzMFyuI-r6o-61" value="Extends" style="endArrow=block;endSize=16;endFill=0;html=1;rounded=0;exitX=0.5;exitY=0;exitDx=0;exitDy=0;" parent="WIyWlLk6GJQsqaUBKTNV-1" source="0YZiHKQ1gjysHXULgs4c-30" edge="1">
          <mxGeometry width="160" relative="1" as="geometry">
            <mxPoint x="440" y="150" as="sourcePoint" />
            <mxPoint x="540" y="-170" as="targetPoint" />
          </mxGeometry>
        </mxCell>
        <mxCell id="PDMnQv3lnzzMFyuI-r6o-62" value="Extends" style="endArrow=block;endSize=16;endFill=0;html=1;rounded=0;exitX=0.25;exitY=0;exitDx=0;exitDy=0;entryX=0.5;entryY=1;entryDx=0;entryDy=0;" parent="WIyWlLk6GJQsqaUBKTNV-1" source="PDMnQv3lnzzMFyuI-r6o-29" target="PDMnQv3lnzzMFyuI-r6o-56" edge="1">
          <mxGeometry width="160" relative="1" as="geometry">
            <mxPoint x="560" y="69" as="sourcePoint" />
            <mxPoint x="600" y="-160" as="targetPoint" />
            <Array as="points" />
          </mxGeometry>
        </mxCell>
        <mxCell id="PDMnQv3lnzzMFyuI-r6o-63" value="Holst_Class" style="swimlane;fontStyle=2;align=center;verticalAlign=top;childLayout=stackLayout;horizontal=1;startSize=26;horizontalStack=0;resizeParent=1;resizeLast=0;collapsible=1;marginBottom=0;rounded=0;shadow=0;strokeWidth=1;" parent="WIyWlLk6GJQsqaUBKTNV-1" vertex="1">
          <mxGeometry x="90.00000000000001" y="-400" width="160" height="164" as="geometry">
            <mxRectangle x="230" y="140" width="160" height="26" as="alternateBounds" />
          </mxGeometry>
        </mxCell>
        <mxCell id="PDMnQv3lnzzMFyuI-r6o-64" value="class Holst()" style="text;align=left;verticalAlign=top;spacingLeft=4;spacingRight=4;overflow=hidden;rotatable=0;points=[[0,0.5],[1,0.5]];portConstraint=eastwest;" parent="PDMnQv3lnzzMFyuI-r6o-63" vertex="1">
          <mxGeometry y="26" width="160" height="26" as="geometry" />
        </mxCell>
        <mxCell id="PDMnQv3lnzzMFyuI-r6o-68" value="Holst_list:Holst[1...*]" style="text;align=left;verticalAlign=top;spacingLeft=4;spacingRight=4;overflow=hidden;rotatable=0;points=[[0,0.5],[1,0.5]];portConstraint=eastwest;" parent="PDMnQv3lnzzMFyuI-r6o-63" vertex="1">
          <mxGeometry y="52" width="160" height="26" as="geometry" />
        </mxCell>
        <mxCell id="PDMnQv3lnzzMFyuI-r6o-65" value="" style="line;html=1;strokeWidth=1;align=left;verticalAlign=middle;spacingTop=-1;spacingLeft=3;spacingRight=3;rotatable=0;labelPosition=right;points=[];portConstraint=eastwest;" parent="PDMnQv3lnzzMFyuI-r6o-63" vertex="1">
          <mxGeometry y="78" width="160" height="8" as="geometry" />
        </mxCell>
        <mxCell id="PDMnQv3lnzzMFyuI-r6o-87" value="create_Holst()" style="text;align=left;verticalAlign=top;spacingLeft=4;spacingRight=4;overflow=hidden;rotatable=0;points=[[0,0.5],[1,0.5]];portConstraint=eastwest;" parent="PDMnQv3lnzzMFyuI-r6o-63" vertex="1">
          <mxGeometry y="86" width="160" height="26" as="geometry" />
        </mxCell>
        <mxCell id="PDMnQv3lnzzMFyuI-r6o-88" value="choose_Holst()" style="text;align=left;verticalAlign=top;spacingLeft=4;spacingRight=4;overflow=hidden;rotatable=0;points=[[0,0.5],[1,0.5]];portConstraint=eastwest;" parent="PDMnQv3lnzzMFyuI-r6o-63" vertex="1">
          <mxGeometry y="112" width="160" height="26" as="geometry" />
        </mxCell>
        <mxCell id="PDMnQv3lnzzMFyuI-r6o-66" value="Extends" style="endArrow=block;endSize=16;endFill=0;html=1;rounded=0;entryX=0;entryY=0.75;entryDx=0;entryDy=0;exitX=1;exitY=0.25;exitDx=0;exitDy=0;" parent="WIyWlLk6GJQsqaUBKTNV-1" source="PDMnQv3lnzzMFyuI-r6o-63" target="PDMnQv3lnzzMFyuI-r6o-56" edge="1">
          <mxGeometry width="160" relative="1" as="geometry">
            <mxPoint x="202" y="120" as="sourcePoint" />
            <mxPoint x="140" y="8" as="targetPoint" />
          </mxGeometry>
        </mxCell>
        <mxCell id="PDMnQv3lnzzMFyuI-r6o-70" value="Figure_Menu" style="swimlane;fontStyle=2;align=center;verticalAlign=top;childLayout=stackLayout;horizontal=1;startSize=26;horizontalStack=0;resizeParent=1;resizeLast=0;collapsible=1;marginBottom=0;rounded=0;shadow=0;strokeWidth=1;" parent="WIyWlLk6GJQsqaUBKTNV-1" vertex="1">
          <mxGeometry x="860" y="-95" width="160" height="236" as="geometry">
            <mxRectangle x="230" y="140" width="160" height="26" as="alternateBounds" />
          </mxGeometry>
        </mxCell>
        <mxCell id="PDMnQv3lnzzMFyuI-r6o-73" value="" style="line;html=1;strokeWidth=1;align=left;verticalAlign=middle;spacingTop=-1;spacingLeft=3;spacingRight=3;rotatable=0;labelPosition=right;points=[];portConstraint=eastwest;" parent="PDMnQv3lnzzMFyuI-r6o-70" vertex="1">
          <mxGeometry y="26" width="160" height="8" as="geometry" />
        </mxCell>
        <mxCell id="PDMnQv3lnzzMFyuI-r6o-82" value="change_Size()" style="text;align=left;verticalAlign=top;spacingLeft=4;spacingRight=4;overflow=hidden;rotatable=0;points=[[0,0.5],[1,0.5]];portConstraint=eastwest;rounded=0;shadow=0;html=0;" parent="PDMnQv3lnzzMFyuI-r6o-70" vertex="1">
          <mxGeometry y="34" width="160" height="26" as="geometry" />
        </mxCell>
        <mxCell id="PDMnQv3lnzzMFyuI-r6o-81" value="change_Rotation()" style="text;align=left;verticalAlign=top;spacingLeft=4;spacingRight=4;overflow=hidden;rotatable=0;points=[[0,0.5],[1,0.5]];portConstraint=eastwest;rounded=0;shadow=0;html=0;" parent="PDMnQv3lnzzMFyuI-r6o-70" vertex="1">
          <mxGeometry y="60" width="160" height="26" as="geometry" />
        </mxCell>
        <mxCell id="PDMnQv3lnzzMFyuI-r6o-80" value="change_fill_color()" style="text;align=left;verticalAlign=top;spacingLeft=4;spacingRight=4;overflow=hidden;rotatable=0;points=[[0,0.5],[1,0.5]];portConstraint=eastwest;rounded=0;shadow=0;html=0;" parent="PDMnQv3lnzzMFyuI-r6o-70" vertex="1">
          <mxGeometry y="86" width="160" height="26" as="geometry" />
        </mxCell>
        <mxCell id="PDMnQv3lnzzMFyuI-r6o-79" value="fill()" style="text;align=left;verticalAlign=top;spacingLeft=4;spacingRight=4;overflow=hidden;rotatable=0;points=[[0,0.5],[1,0.5]];portConstraint=eastwest;rounded=0;shadow=0;html=0;" parent="PDMnQv3lnzzMFyuI-r6o-70" vertex="1">
          <mxGeometry y="112" width="160" height="26" as="geometry" />
        </mxCell>
        <mxCell id="PDMnQv3lnzzMFyuI-r6o-78" value="change_line_color()" style="text;align=left;verticalAlign=top;spacingLeft=4;spacingRight=4;overflow=hidden;rotatable=0;points=[[0,0.5],[1,0.5]];portConstraint=eastwest;rounded=0;shadow=0;html=0;" parent="PDMnQv3lnzzMFyuI-r6o-70" vertex="1">
          <mxGeometry y="138" width="160" height="26" as="geometry" />
        </mxCell>
        <mxCell id="PDMnQv3lnzzMFyuI-r6o-77" value="change_position()&#xa;" style="text;align=left;verticalAlign=top;spacingLeft=4;spacingRight=4;overflow=hidden;rotatable=0;points=[[0,0.5],[1,0.5]];portConstraint=eastwest;" parent="PDMnQv3lnzzMFyuI-r6o-70" vertex="1">
          <mxGeometry y="164" width="160" height="36" as="geometry" />
        </mxCell>
        <mxCell id="PDMnQv3lnzzMFyuI-r6o-90" value="delete()&#xa;" style="text;align=left;verticalAlign=top;spacingLeft=4;spacingRight=4;overflow=hidden;rotatable=0;points=[[0,0.5],[1,0.5]];portConstraint=eastwest;" parent="PDMnQv3lnzzMFyuI-r6o-70" vertex="1">
          <mxGeometry y="200" width="160" height="30" as="geometry" />
        </mxCell>
        <mxCell id="PDMnQv3lnzzMFyuI-r6o-75" value="Extends" style="endArrow=block;endSize=16;endFill=0;html=1;rounded=0;exitX=0.5;exitY=0;exitDx=0;exitDy=0;" parent="WIyWlLk6GJQsqaUBKTNV-1" source="PDMnQv3lnzzMFyuI-r6o-70" edge="1">
          <mxGeometry width="160" relative="1" as="geometry">
            <mxPoint x="650" y="130" as="sourcePoint" />
            <mxPoint x="680" y="-190" as="targetPoint" />
          </mxGeometry>
        </mxCell>
        <mxCell id="PDMnQv3lnzzMFyuI-r6o-76" value="Use" style="endArrow=open;endSize=12;dashed=1;html=1;rounded=0;exitX=0;exitY=0.5;exitDx=0;exitDy=0;entryX=0.829;entryY=-0.004;entryDx=0;entryDy=0;entryPerimeter=0;" parent="WIyWlLk6GJQsqaUBKTNV-1" source="PDMnQv3lnzzMFyuI-r6o-77" target="0YZiHKQ1gjysHXULgs4c-22" edge="1">
          <mxGeometry width="160" relative="1" as="geometry">
            <mxPoint x="840" y="262" as="sourcePoint" />
            <mxPoint x="720" y="371" as="targetPoint" />
          </mxGeometry>
        </mxCell>
        <mxCell id="PDMnQv3lnzzMFyuI-r6o-84" value="Use" style="endArrow=open;endSize=12;dashed=1;html=1;rounded=0;exitX=0;exitY=0.5;exitDx=0;exitDy=0;entryX=1;entryY=0;entryDx=0;entryDy=0;" parent="WIyWlLk6GJQsqaUBKTNV-1" source="PDMnQv3lnzzMFyuI-r6o-77" target="zkfFHV4jXpPFQw0GAbJ--0" edge="1">
          <mxGeometry width="160" relative="1" as="geometry">
            <mxPoint x="790" y="138" as="sourcePoint" />
            <mxPoint x="730" y="381" as="targetPoint" />
          </mxGeometry>
        </mxCell>
        <mxCell id="PDMnQv3lnzzMFyuI-r6o-85" value="1" style="edgeLabel;html=1;align=center;verticalAlign=middle;resizable=0;points=[];" parent="WIyWlLk6GJQsqaUBKTNV-1" vertex="1" connectable="0">
          <mxGeometry x="280.00369858076056" y="259.9971557972352" as="geometry">
            <mxPoint x="-73" y="-60" as="offset" />
          </mxGeometry>
        </mxCell>
        <mxCell id="LNkes5iSFhZVBWa9FtKC-3" value="Complex_Figure" style="swimlane;fontStyle=2;align=center;verticalAlign=top;childLayout=stackLayout;horizontal=1;startSize=26;horizontalStack=0;resizeParent=1;resizeLast=0;collapsible=1;marginBottom=0;rounded=0;shadow=0;strokeWidth=1;" parent="WIyWlLk6GJQsqaUBKTNV-1" vertex="1">
          <mxGeometry x="880" y="450" width="160" height="198" as="geometry">
            <mxRectangle x="230" y="140" width="160" height="26" as="alternateBounds" />
          </mxGeometry>
        </mxCell>
        <mxCell id="LNkes5iSFhZVBWa9FtKC-4" value="SimpF_tree:Figure[1...*]" style="text;align=left;verticalAlign=top;spacingLeft=4;spacingRight=4;overflow=hidden;rotatable=0;points=[[0,0.5],[1,0.5]];portConstraint=eastwest;rounded=0;shadow=0;html=0;" parent="LNkes5iSFhZVBWa9FtKC-3" vertex="1">
          <mxGeometry y="26" width="160" height="26" as="geometry" />
        </mxCell>
        <mxCell id="LNkes5iSFhZVBWa9FtKC-5" value="presets:[1...*]" style="text;align=left;verticalAlign=top;spacingLeft=4;spacingRight=4;overflow=hidden;rotatable=0;points=[[0,0.5],[1,0.5]];portConstraint=eastwest;rounded=0;shadow=0;html=0;" parent="LNkes5iSFhZVBWa9FtKC-3" vertex="1">
          <mxGeometry y="52" width="160" height="26" as="geometry" />
        </mxCell>
        <mxCell id="LNkes5iSFhZVBWa9FtKC-6" value="" style="line;html=1;strokeWidth=1;align=left;verticalAlign=middle;spacingTop=-1;spacingLeft=3;spacingRight=3;rotatable=0;labelPosition=right;points=[];portConstraint=eastwest;" parent="LNkes5iSFhZVBWa9FtKC-3" vertex="1">
          <mxGeometry y="78" width="160" height="8" as="geometry" />
        </mxCell>
        <mxCell id="LNkes5iSFhZVBWa9FtKC-7" value="choose_preset()&#xa;" style="text;align=left;verticalAlign=top;spacingLeft=4;spacingRight=4;overflow=hidden;rotatable=0;points=[[0,0.5],[1,0.5]];portConstraint=eastwest;" parent="LNkes5iSFhZVBWa9FtKC-3" vertex="1">
          <mxGeometry y="86" width="160" height="30" as="geometry" />
        </mxCell>
        <mxCell id="LNkes5iSFhZVBWa9FtKC-8" value="add_preset()&#xa;" style="text;align=left;verticalAlign=top;spacingLeft=4;spacingRight=4;overflow=hidden;rotatable=0;points=[[0,0.5],[1,0.5]];portConstraint=eastwest;" parent="LNkes5iSFhZVBWa9FtKC-3" vertex="1">
          <mxGeometry y="116" width="160" height="30" as="geometry" />
        </mxCell>
        <mxCell id="LNkes5iSFhZVBWa9FtKC-9" value="Extends" style="endArrow=block;endSize=16;endFill=0;html=1;rounded=0;exitX=-0.003;exitY=-0.1;exitDx=0;exitDy=0;exitPerimeter=0;entryX=1.012;entryY=0.058;entryDx=0;entryDy=0;entryPerimeter=0;" parent="WIyWlLk6GJQsqaUBKTNV-1" source="LNkes5iSFhZVBWa9FtKC-7" target="0YZiHKQ1gjysHXULgs4c-113" edge="1">
          <mxGeometry width="160" relative="1" as="geometry">
            <mxPoint x="840" y="500" as="sourcePoint" />
            <mxPoint x="760" y="570" as="targetPoint" />
          </mxGeometry>
        </mxCell>
        <mxCell id="n2m1qEo15SlTPp7_ACov-1" value="1" style="edgeLabel;html=1;align=center;verticalAlign=middle;resizable=0;points=[];" parent="WIyWlLk6GJQsqaUBKTNV-1" vertex="1" connectable="0">
          <mxGeometry x="680" y="-540" as="geometry">
            <mxPoint x="86" y="32" as="offset" />
          </mxGeometry>
        </mxCell>
        <mxCell id="n2m1qEo15SlTPp7_ACov-2" value="1...*" style="edgeLabel;html=1;align=center;verticalAlign=middle;resizable=0;points=[];" parent="WIyWlLk6GJQsqaUBKTNV-1" vertex="1" connectable="0">
          <mxGeometry x="640" y="-310" as="geometry">
            <mxPoint x="71" y="-130" as="offset" />
          </mxGeometry>
        </mxCell>
        <mxCell id="n2m1qEo15SlTPp7_ACov-3" value="1" style="edgeLabel;html=1;align=center;verticalAlign=middle;resizable=0;points=[];" parent="WIyWlLk6GJQsqaUBKTNV-1" vertex="1" connectable="0">
          <mxGeometry x="80" y="10" as="geometry">
            <mxPoint x="71" y="-130" as="offset" />
          </mxGeometry>
        </mxCell>
        <mxCell id="n2m1qEo15SlTPp7_ACov-4" value="1...*" style="edgeLabel;html=1;align=center;verticalAlign=middle;resizable=0;points=[];" parent="WIyWlLk6GJQsqaUBKTNV-1" vertex="1" connectable="0">
          <mxGeometry x="340" y="585" as="geometry">
            <mxPoint x="71" y="-130" as="offset" />
          </mxGeometry>
        </mxCell>
        <mxCell id="n2m1qEo15SlTPp7_ACov-5" value="1" style="edgeLabel;html=1;align=center;verticalAlign=middle;resizable=0;points=[];" parent="WIyWlLk6GJQsqaUBKTNV-1" vertex="1" connectable="0">
          <mxGeometry x="210" y="460" as="geometry">
            <mxPoint x="71" y="-130" as="offset" />
          </mxGeometry>
        </mxCell>
      </root>
    </mxGraphModel>
  </diagram>
</mxfile>
